:SAMPLES-PER-SECOND 30
:FRAME-RANGE 1-3535
:FULLY-SPECIFIED
:DEGREES
442
root  -13.615 38.1129 -81.5243 -8.08081 55.1058 -3.92413
RightUpLeg  -19.0973 -22.7524 -6.86443
RightLeg  52.4155 3.56759 4.59145
RightFoot  -0.826809 -1.42434 15.333
RightToes  1.22775e-009 1.2921e-014 -6.02303e-014
Spine  12.4874 2.71848 5.10285
Spine1  -7.75048 3.40861 -2.08924
HEad  4.90249 2.75711 0.199627
LeftShoulder1  0.844517 0.321588 -20.0561
LeftArm  -5.67196 -24.9046 -20.9676
LeftForeArm  -5.06781 -29.2818 -6.62469
LeftHand  0.408504 -3.3137 -5.21387
RightShoulder  3.65231 5.63508 34.084
RightArm  9.28518 -17.2549 14.0305
RightForeArm  9.86865 69.1082 30.9913
RightHand  -0.116734 0.00113337 -2.53038
LeftUpLeg  -18.7104 16.0755 16.581
LeftLeg  17.52 3.14105 1.40855
LeftFoot  -3.60267 0.715384 -10.2386
LeftToes  2.52163e-011 5.65494e-011 -1.09494e-012
443
root  -12.7134 37.6305 -81.3148 -8.20448 52.9742 -3.94162
RightUpLeg  -21.3716 -21.1614 -8.03965
RightLeg  50.4788 -0.0963404 -0.485142
RightFoot  -1.9033 -1.20993 14.4282
RightToes  1.22775e-009 1.2921e-014 -6.02303e-014
Spine  12.9287 2.29577 3.04861
Spine1  -8.48571 2.36833 1.66371
HEad  4.84251 7.24334 -1.09827
LeftShoulder1  0.781914 0.427543 -18.8521
LeftArm  -10.7771 -23.0345 -17.7824
LeftForeArm  -4.90878 -29.2522 -6.60909
LeftHand  0.395632 -3.28447 -5.06154
RightShoulder  3.48473 4.3448 38.4311
RightArm  7.37355 -16.2317 14.8095
RightForeArm  12.0015 69.2096 30.859
RightHand  -0.111559 0.236948 -2.34185
LeftUpLeg  -18.4853 17.6297 18.1255
LeftLeg  21.5417 3.56202 1.88318
LeftFoot  -1.98616 1.38592 -16.694
LeftToes  2.52163e-011 5.65494e-011 -1.09494e-012
444
root  -11.9499 36.8207 -81.2117 -8.21304 50.6809 -3.48344
RightUpLeg  -22.9817 -15.3986 -9.87844
RightLeg  44.1038 1.92332 1.69202
RightFoot  -6.89783 -0.640132 15.2003
RightToes  1.22775e-009 1.2921e-014 -6.02303e-014
Spine  14.8569 1.61723 0.972812
Spine1  -9.94801 1.15606 5.50735
HEad  3.82244 12.593 -2.11581
LeftShoulder1  0.785788 0.275904 -17.6951
LeftArm  -15.589 -21.0639 -13.7765
LeftForeArm  -5.95296 -27.8577 -6.32139
LeftHand  0.331524 -2.78708 -4.50045
RightShoulder  3.94225 4.25311 44.4599
RightArm  4.2779 -13.7253 15.207
RightForeArm  8.72294 68.0954 29.2097
RightHand  -0.165935 -0.206507 -3.71756
LeftUpLeg  -20.8173 21.8063 18.7297
LeftLeg  30.0391 0.134427 0.433644
LeftFoot  -2.68324 1.23369 -15.9985
LeftToes  2.52163e-011 5.65494e-011 -1.09494e-012
445
root  -11.2293 35.9275 -81.1378 -8.10368 48.6618 -2.45836
RightUpLeg  -24.6406 -8.71811 -12.3025
RightLeg  39.0107 4.90523 3.97942
RightFoot  -13.0342 0.163451 16.976
RightToes  1.22775e-009 1.2921e-014 -6.02303e-014
Spine  16.8435 1.07933 -1.31614
Spine1  -10.3384 -0.0645912 10.0188
HEad  1.6839 18.1246 -4.36953
LeftShoulder1  0.873424 -0.102918 -17.5613
LeftArm  -18.3088 -19.4578 -9.24348
LeftForeArm  -9.47313 -24.4649 -5.70193
LeftHand  0.318731 -1.95815 -4.88298
RightShoulder  4.89997 5.32827 48.6281
RightArm  0.677434 -11.4323 17.2006
RightForeArm  5.74953 65.9913 26.1914
RightHand  -0.198518 -0.241441 -4.47844
LeftUpLeg  -22.4525 24.6589 19.1302
LeftLeg  38.0589 -1.67073 -1.02871
LeftFoot  -4.47761 0.878188 -14.1396
LeftToes  2.52163e-011 5.65494e-011 -1.09494e-012
446
root  -10.5095 34.7196 -80.8838 -7.5854 46.9792 -1.52486
RightUpLeg  -28.9357 -6.43125 -13.87
RightLeg  46.8615 5.15838 5.55293
RightFoot  -14.9167 0.412378 16.3719
RightToes  1.22775e-009 1.2921e-014 -6.02303e-014
Spine  17.9139 0.788826 -3.02624
Spine1  -10.5947 -0.818646 12.8481
HEad  0.226541 23.2176 -6.80493
LeftShoulder1  0.991469 -0.724667 -16.733
LeftArm  -23.8984 -17.5105 -7.0807
LeftForeArm  -14.2424 -19.8169 -7.04762
LeftHand  -0.00120246 4.02993 -1.91357
RightShoulder  6.07358 6.75604 51.8394
RightArm  3.34673 -8.33118 15.774
RightForeArm  1.82519 64.3098 24.3889
RightHand  -0.218724 0.00522871 -4.73645
LeftUpLeg  -24.977 26.1237 19.9403
LeftLeg  47.477 -2.19749 -2.13691
LeftFoot  -9.01748 0.338084 -13.9586
LeftToes  2.52163e-011 5.65494e-011 -1.09494e-012
447
root  -9.77612 33.5579 -80.6655 -8.22318 46.4892 -1.62471
RightUpLeg  -30.9395 -5.50002 -15.2601
RightLeg  53.5949 4.47031 6.09825
RightFoot  -17.9197 0.978083 18.9882
RightToes  1.22775e-009 1.2921e-014 -6.02303e-014
Spine  18.7424 0.244382 -3.4952
Spine1  -10.3991 -1.73746 15.6583
HEad  -1.58047 28.1642 -8.32398
LeftShoulder1  0.994933 -1.04717 -15.0074
LeftArm  -40.8543 -12.7831 -7.37998
LeftForeArm  -14.0606 -17.4179 -7.2018
LeftHand  -0.0329277 5.38802 -3.37733
RightShoulder  6.67091 7.7185 52.0439
RightArm  7.34509 -6.62525 15.3949
RightForeArm  1.3814 65.3509 25.8207
RightHand  -0.127699 0.325796 -2.64433
LeftUpLeg  -26.9762 26.4412 21.1596
LeftLeg  55.7694 -2.42025 -3.32004
LeftFoot  -13.7362 -0.207588 -13.7972
LeftToes  2.52163e-011 5.65494e-011 -1.09494e-012
448
root  -9.20379 32.6334 -80.2337 -8.5676 46.7023 -1.27731
RightUpLeg  -32.3688 -4.67178 -16.3572
RightLeg  59.6358 3.79226 6.49706
RightFoot  -20.1209 1.24124 17.8263
RightToes  1.22775e-009 1.2921e-014 -6.02303e-014
Spine  19.8409 0.158487 -3.94291
Spine1  -10.7733 -1.93145 16.5318
HEad  -4.53814 32.143 -10.5651
LeftShoulder1  0.936971 -0.684791 -15.5591
LeftArm  -45.6541 -7.27387 -8.11498
LeftForeArm  -18.2773 -19.0925 -6.3865
LeftHand  0.0752345 4.36179 -12.4214
RightShoulder  6.2791 7.14836 51.6231
RightArm  9.65454 -3.22441 15.6008
RightForeArm  3.53474 65.3763 25.5949
RightHand  -0.109483 0.490452 -2.22553
LeftUpLeg  -27.7678 26.2095 22.2362
LeftLeg  61.4777 -2.5784 -4.5442
LeftFoot  -17.461 -0.651065 -14.0702
LeftToes  2.52163e-011 5.65494e-011 -1.09494e-012
449
root  -8.52074 31.8048 -79.8509 -9.07794 47.7519 -0.886307
RightUpLeg  -32.3941 -4.21622 -18.0439
RightLeg  64.6639 3.27012 6.92676
RightFoot  -23.3803 1.82536 18.6741
RightToes  1.22775e-009 1.2921e-014 -6.02303e-014
Spine  20.4144 0.0143433 -2.97358
Spine1  -10.5291 -1.85896 15.6339
HEad  -7.33701 34.7734 -12.2909
LeftShoulder1  0.959949 -0.518752 -17.1834
LeftArm  -39.4661 -1.79135 -9.52913
LeftForeArm  -25.3003 -24.995 -6.52108
LeftHand  0.117656 3.75019 -10.3608
RightShoulder  6.88039 7.76161 53.4227
RightArm  7.84457 0.810906 13.797
RightForeArm  2.24454 63.3045 23.1306
RightHand  -0.127087 0.664181 -2.51802
LeftUpLeg  -28.278 25.2116 22.7956
LeftLeg  66.4448 -2.52983 -5.64615
LeftFoot  -20.6056 -0.981226 -13.5771
LeftToes  2.52163e-011 5.65494e-011 -1.09494e-012
450
root  -7.9808 31.2806 -79.5204 -9.16472 50.1168 -0.146744
RightUpLeg  -31.2884 -5.82644 -20.0133
RightLeg  68.0081 3.05894 7.62834
RightFoot  -25.8501 2.28824 19.2009
RightToes  1.22775e-009 1.2921e-014 -6.02303e-014
Spine  21.0636 0.119653 -2.36254
Spine1  -11.2272 -1.49073 14.4452
HEad  -7.82617 35.6445 -12.2227
LeftShoulder1  0.956965 -0.26463 -18.8339
LeftArm  -32.3614 2.21354 -12.285
LeftForeArm  -17.2033 -27.7096 -6.82796
LeftHand  0.0849231 4.07423 -10.2179
RightShoulder  7.69189 8.88896 54.2475
RightArm  2.80387 4.73392 12.1266
RightForeArm  -2.71305 58.5302 19.0231
RightHand  -0.13364 1.23942 -2.46671
LeftUpLeg  -28.7293 24.8096 22.5924
LeftLeg  69.4493 -2.98215 -7.97902
LeftFoot  -22.735 -1.17326 -13.0772
LeftToes  2.52163e-011 5.65494e-011 -1.09494e-012
